# xmcd
#
# Track frame offsets:
#	180
#	14386
#	28353
#	46290
#	56958
#	68545
#	88105
#	104165
#	119546
#	133467
#	152565
#	164736
#
# Disc length: 2426 seconds
#
# Revision: 1
# Processed by: cddbd v1.5.2PL0 Copyright (c) Steve Scherf et al.
# Submitted via: audiograbber 1.83.01
#
DISCID=b509780c
DTITLE=Al Brant - Al Brant and The Water Birds
DYEAR=1995
DGENRE=Country
TTITLE0=Mad Scientist
TTITLE1=High on You
TTITLE2=Woman of the Woods)
TTITLE3=Ain't Gonna Do It
TTITLE4=Mr. Heavy
TTITLE5=Horizon of Blue
TTITLE6=Ride the Wave
TTITLE7=Bury all your Dead
TTITLE8=Hollywood's a Mother
TTITLE9=Love Raining Down
TTITLE10=Healer
TTITLE11=The River
EXTD=All songs written by Al Brant\nAll songs Socan Produced by Jamie Kidd\nAl 
EXTD=Brant =Lead Vocals, 12 String Acoustic Guitar\nBarrie Nighswander =Guita
EXTD=r (electric/acoustic), Background Vocals\nCliff Minchau =Base (electric/a
EXTD=coustic), Background Vocals\nKelly Pikula =Drums\nJamie Kidd =Hammond Or
EXTD=gan, Piano\nCathy McDonald =Background vocals on track 3\nBill Hobson =D
EXTD=rums on tracks 5&10\nDuane Smith =Base on trakes 5&10\nArrangments by the
EXTD=Water Birds
EXTT0=
EXTT1=
EXTT2=
EXTT3=
EXTT4=
EXTT5=
EXTT6=
EXTT7=
EXTT8=
EXTT9=
EXTT10=
EXTT11=
PLAYORDER=
